<svg width="168" height="168" viewBox="0 0 168 168" fill="none" xmlns="http://www.w3.org/2000/svg">
<g clip-path="url(#clip0_497_963)">
<path d="M159.998 55.9986V48.0012V39.9996H152.001V31.9981V24.0006H143.999V15.999H128V8.00155H112.001V0H55.9986V8.00155H39.9996V15.999H24.0006V24.0006H15.999V31.9981V39.9996H8.00155V48.0012V55.9986H0V64.0002V72.0017V79.9992V88.0008V95.9983V104V112.001H8.00155V119.999V128H15.999V136.002V143.999H24.0006V152.001H39.9996V159.998H55.9986V168H112.001V159.998H128V152.001H136.002V143.999H143.999V136.002H152.001V128H159.998V119.999V112.001H168V104V95.9983V88.0008V79.9992V72.0017V64.0002V55.9986H159.998Z" fill="#697586"/>
<path d="M168 88.0008V79.9992H104V55.9986H119.999V48.0012H104V0H95.9983V48.0012H79.9992V55.9986H95.9983V79.9992H0V88.0008H95.9983V119.999H79.9992H72.0017V128H79.9992H95.9983V168H104V128H119.999V119.999H104V88.0008H168Z" fill="#202939"/>
<path d="M24.0006 48.0012H15.999V56.0028H24.0006V48.0012Z" fill="#202939"/>
<path d="M32.002 31.998H24.0005V39.9996H32.002V31.998Z" fill="#202939"/>
<path d="M72.0016 8.00146H64V16.003H72.0016V8.00146Z" fill="#202939"/>
<path d="M128.001 128H119.999V136.002H128.001V128Z" fill="#202939"/>
<path d="M64.0001 136.002H55.9985V144.004H64.0001V136.002Z" fill="#202939"/>
<path d="M72.0016 128H64V136.002H72.0016V128Z" fill="#202939"/>
<path d="M55.9985 144H39.9995V152.001H55.9985V144Z" fill="#202939"/>
<path d="M136.002 136.002H128V144.004H136.002V136.002Z" fill="#202939"/>
<path d="M72.0016 31.998H64V39.9996H72.0016V31.998Z" fill="#202939"/>
<path d="M80.0035 39.9995H72.002V48.0011H80.0035V39.9995Z" fill="#202939"/>
<path d="M128.001 39.9995H119.999V48.0011H128.001V39.9995Z" fill="#202939"/>
<path d="M64.0001 24.0005H55.9985V32.002H64.0001V24.0005Z" fill="#202939"/>
<path d="M136.002 31.998H128V39.9996H136.002V31.998Z" fill="#202939"/>
<path d="M55.9985 15.999H39.9995V24.0006H55.9985V15.999Z" fill="#202939"/>
<path d="M144.004 24.0005H136.002V32.002H144.004V24.0005Z" fill="#202939"/>
<path d="M64.0001 119.999H55.9985V128H64.0001V119.999Z" fill="white"/>
<path d="M72.0016 119.999H64V128H72.0016V119.999Z" fill="#121926"/>
<path d="M56.0025 119.999H48.001V128H56.0025V119.999Z" fill="#121926"/>
<path d="M80.003 119.999H72.0015V128H80.003V119.999Z" fill="white"/>
<path d="M88.0006 119.999H79.999V128H88.0006V119.999Z" fill="#121926"/>
<path d="M96.002 119.999H88.0005V128H96.002V119.999Z" fill="white"/>
<path d="M104 119.999H95.998V128H104V119.999Z" fill="#121926"/>
<path d="M143.999 64.0002H95.998V112.001H143.999V64.0002Z" fill="#004EEB"/>
<path d="M119.999 72.0017H104V104H119.999V72.0017Z" fill="white"/>
<path d="M135.998 72.0017H119.999V104H135.998V72.0017Z" fill="#121926"/>
<path d="M98.4238 79.9993H88.001V88.0008H98.4238V79.9993Z" fill="#004EEB"/>
<path d="M88.0007 64.0002H39.9995V112.001H88.0007V64.0002Z" fill="#F04438"/>
<path d="M64 72.0017H48.001V104H64V72.0017Z" fill="white"/>
<path d="M79.999 72.0017H64V104H79.999V72.0017Z" fill="#121926"/>
<path d="M15.999 79.9993V88.0008V95.9983V104H24.0006V95.9983V88.0008H39.9996V79.9993H15.999Z" fill="#F04438"/>
</g>
<defs>
<clipPath id="clip0_497_963">
<rect width="168" height="168" fill="white"/>
</clipPath>
</defs>
</svg>
