<svg width="379" height="550" viewBox="0 0 379 550" fill="none" xmlns="http://www.w3.org/2000/svg">
<path d="M165.345 383.795H141.71V407.429H165.345V383.795Z" fill="white"/>
<path d="M188.979 407.43H165.345V431.064H188.979V407.43Z" fill="white"/>
<path d="M236.248 407.43H212.614V431.064H236.248V407.43Z" fill="white"/>
<path d="M283.513 407.43H259.879V431.064H283.513V407.43Z" fill="white"/>
<path d="M236.248 454.698H212.614V478.333H236.248V454.698Z" fill="white"/>
<path d="M283.513 454.698H259.879V478.333H283.513V454.698Z" fill="white"/>
<path d="M236.248 501.967H212.614V525.601H236.248V501.967Z" fill="white"/>
<path d="M283.513 501.967H259.879V525.601H283.513V501.967Z" fill="white"/>
<path d="M330.782 407.43H307.147V431.064H330.782V407.43Z" fill="white"/>
<path d="M188.979 454.698H165.345V478.333H188.979V454.698Z" fill="white"/>
<path d="M330.782 454.698H307.147V478.333H330.782V454.698Z" fill="white"/>
<path d="M212.613 383.795H188.979V407.429H212.613V383.795Z" fill="white"/>
<path d="M259.882 383.795H236.248V407.429H259.882V383.795Z" fill="white"/>
<path d="M307.148 383.795H283.513V407.429H307.148V383.795Z" fill="white"/>
<path d="M188.979 431.063H165.345V454.698H188.979V431.063Z" fill="white"/>
<path d="M236.248 431.063H212.614V454.698H236.248V431.063Z" fill="white"/>
<path d="M283.513 431.063H259.879V454.698H283.513V431.063Z" fill="white"/>
<path d="M330.782 431.063H307.147V454.698H330.782V431.063Z" fill="white"/>
<path d="M212.613 478.333H188.979V501.967H212.613V478.333Z" fill="white"/>
<path d="M259.882 478.333H236.248V501.967H259.882V478.333Z" fill="white"/>
<path d="M307.148 478.333H283.513V501.967H307.148V478.333Z" fill="white"/>
<path d="M212.613 525.601H188.979V549.235H212.613V525.601Z" fill="white"/>
<path d="M259.882 525.601H236.248V549.235H259.882V525.601Z" fill="white"/>
<path d="M307.148 525.601H283.513V549.235H307.148V525.601Z" fill="white"/>
<path d="M354.417 383.795H330.782V407.429H354.417V383.795Z" fill="white"/>
<path d="M378.051 360.161H118.076V383.795H378.051V360.161Z" fill="#F04438"/>
<path d="M212.625 330.752H189V342.563H212.625V330.752Z" fill="#FFC110"/>
<path d="M366.188 141.749H354.377V153.56H366.188V141.749Z" fill="#FFC110"/>
<path d="M354.375 118.124H342.563V129.935H354.375V118.124Z" fill="#FFC110"/>
<path d="M342.563 106.312H318.938V118.124H342.563V106.312Z" fill="#FFC110"/>
<path d="M330.749 94.5015H295.313V106.313H330.749V94.5015Z" fill="#FFC110"/>
<path d="M212.625 94.5015H189V106.313H212.625V94.5015Z" fill="#FFC110"/>
<path d="M189 94.5015H153.563V118.127H189V94.5015Z" fill="#FFC110"/>
<path d="M165.374 106.312H129.938V129.938H165.374V106.312Z" fill="#FFC110"/>
<path d="M307.124 82.6875H165.375V94.4987H307.124V82.6875Z" fill="#FFC110"/>
<path d="M189 318.938H165.345V330.749H189V318.938Z" fill="#FFC110"/>
<path d="M165.375 307.127H141.749V318.938H165.375V307.127Z" fill="#FFC110"/>
<path d="M153.56 283.501H141.749V307.127H153.56V283.501Z" fill="#FFC110"/>
<path d="M141.749 259.876H129.938V283.501H141.749V259.876Z" fill="#FFC110"/>
<path d="M129.938 248.062H106.312V259.873H129.938V248.062Z" fill="#FFC110"/>
<path d="M141.749 153.563H118.124V177.189H141.749V153.563Z" fill="#FFC110"/>
<path d="M153.561 129.938H118.124V153.563H153.561V129.938Z" fill="#FFC110"/>
<path d="M82.6872 129.938H70.876V153.563H82.6872V129.938Z" fill="#FF7216"/>
<path d="M141.749 82.6875H129.938V94.4987H141.749V82.6875Z" fill="#FF7216"/>
<path d="M189 106.312H165.375V118.124H189V106.312Z" fill="#FF7216"/>
<path d="M153.56 283.501H141.749V307.127H153.56V283.501Z" fill="#FF7216"/>
<path d="M259.876 70.876H153.563V82.6872H259.876V70.876Z" fill="#FFC110"/>
<path d="M248.062 59.062H189V70.8732H248.062V59.062Z" fill="#FF7216"/>
<path d="M283.498 70.876H248.062V82.6872H283.498V70.876Z" fill="#FF7216"/>
<path d="M307.124 82.6875H271.687V94.4987H307.124V82.6875Z" fill="#FF7216"/>
<path d="M118.124 259.876H106.312V271.687H118.124V259.876Z" fill="#FF7216"/>
<path d="M165.375 307.127H153.563V318.938H165.375V307.127Z" fill="#FE500C"/>
<path d="M141.749 283.501H129.938V295.313H141.749V283.501Z" fill="#FF7216"/>
<path d="M129.938 236.25H106.312V248.062H129.938V236.25Z" fill="#FF7216"/>
<path d="M59.0619 82.6875H35.4365V94.4987H59.0619V82.6875Z" fill="#FE500C"/>
<path d="M153.563 94.5015H47.2507V106.313H153.563V94.5015Z" fill="#FE500C"/>
<path d="M165.375 106.312H141.749V118.124H165.375V106.312Z" fill="#FE500C"/>
<path d="M129.938 82.6875H35.4365V94.4987H129.938V82.6875Z" fill="#FE500C"/>
<path d="M200.814 70.876H153.563V82.6872H200.814V70.876Z" fill="#FE500C"/>
<path d="M224.439 82.6875H189.003V94.4987H224.439V82.6875Z" fill="#FE500C"/>
<path d="M177.189 35.4365H47.2507V47.2477H177.189V35.4365Z" fill="#FE500C"/>
<path d="M47.2503 11.811H11.8137V23.6222H47.2503V11.811Z" fill="#FE500C"/>
<path d="M11.8112 0H0V11.8112H11.8112V0Z" fill="#FE500C"/>
<path d="M165.375 23.6255H153.563V35.4367H165.375V23.6255Z" fill="#FE500C"/>
<path d="M118.124 23.6255H94.4983V35.4367H118.124V23.6255Z" fill="#FE500C"/>
<path d="M94.5019 11.811H82.6907V23.6222H94.5019V11.811Z" fill="#FE500C"/>
<path d="M189 35.4365H177.189V47.2477H189V35.4365Z" fill="#FE500C"/>
<path d="M70.876 23.6255H35.4395V35.4367H70.876V23.6255Z" fill="#FE500C"/>
<path d="M35.4364 35.4365H11.811V47.2477H35.4364V35.4365Z" fill="#FE500C"/>
<path d="M70.8761 0H59.0649V11.8112H70.8761V0Z" fill="#FE500C"/>
<path d="M236.251 47.2505H224.439V59.0617H236.251V47.2505Z" fill="#FE500C"/>
<path d="M271.687 59.062H259.876V70.8732H271.687V59.062Z" fill="#FE500C"/>
<path d="M106.313 236.25H94.5017V248.062H106.313V236.25Z" fill="#FE500C"/>
<path d="M118.124 0H106.312V11.8112H118.124V0Z" fill="#FE500C"/>
<path d="M35.4369 129.938H23.6257V141.749H35.4369V129.938Z" fill="#FE500C"/>
<path d="M47.2506 106.312H35.4395V118.124H47.2506V106.312Z" fill="#FE500C"/>
<path d="M259.876 70.876H248.065V82.6872H259.876V70.876Z" fill="#FE500C"/>
<path d="M200.814 23.6255H189.003V35.4367H200.814V23.6255Z" fill="#FE500C"/>
<path d="M129.938 11.811H118.127V23.6222H129.938V11.811Z" fill="#FE500C"/>
<path d="M153.563 23.6255H129.938V35.4367H153.563V23.6255Z" fill="#FE500C"/>
<path d="M212.626 47.2505H23.6257V59.0617H212.626V47.2505Z" fill="#FE500C"/>
<path d="M141.749 59.062H118.124V70.8732H141.749V59.062Z" fill="#FFC110"/>
<path d="M153.563 70.876H129.938V82.6872H153.563V70.876Z" fill="#FFC110"/>
<path d="M82.6876 82.6875H59.0623V94.4987H82.6876V82.6875Z" fill="#FFC110"/>
<path d="M153.563 35.4365H129.938V47.2477H153.563V35.4365Z" fill="#FFC110"/>
<path d="M94.5013 59.062H70.876V70.8732H94.5013V59.062Z" fill="#FFC110"/>
<path d="M106.313 70.876H82.6875V82.6872H106.313V70.876Z" fill="#FFC110"/>
<path d="M106.313 94.5015H82.6875V106.313H106.313V94.5015Z" fill="#FFC110"/>
<path d="M94.5013 118.124H70.876V129.935H94.5013V118.124Z" fill="#FFC110"/>
<path d="M70.8761 141.749H59.0649V153.56H70.8761V141.749Z" fill="#FFC110"/>
<path d="M106.313 141.749H94.5017V165.374H106.313V141.749Z" fill="#FFC110"/>
<path d="M118.124 141.749H70.8733V177.186H118.124V141.749Z" fill="#FFC110"/>
<path d="M70.8761 106.312H59.0649V118.124H70.8761V106.312Z" fill="#FFC110"/>
<path d="M70.8761 129.938H59.0649V141.749H70.8761V129.938Z" fill="#FE500C"/>
<path d="M59.0619 70.876H47.2507V82.6872H59.0619V70.876Z" fill="#FFC110"/>
<path d="M118.124 47.2505H106.312V59.0617H118.124V47.2505Z" fill="#FFC110"/>
<path d="M177.189 47.2505H141.752V59.0617H177.189V47.2505Z" fill="#FFC110"/>
<path d="M212.625 59.062H153.563V70.8732H212.625V59.062Z" fill="#FFC110"/>
<path d="M106.313 35.4365H82.6875V47.2477H106.313V35.4365Z" fill="#FFC110"/>
<path d="M70.8761 47.2505H59.0649V59.0617H70.8761V47.2505Z" fill="#FFC110"/>
<path d="M82.6872 23.6255H70.876V35.4367H82.6872V23.6255Z" fill="#FFC110"/>
<path d="M129.938 118.124H82.6875V129.935H129.938V118.124Z" fill="#FF7216"/>
<path d="M153.563 129.938H129.938V141.749H153.563V129.938Z" fill="#FF7216"/>
<path d="M141.749 153.563H118.124V165.375H141.749V153.563Z" fill="#FF7216"/>
<path d="M153.563 47.2505H129.938V59.0617H153.563V47.2505Z" fill="#FF7216"/>
<path d="M200.814 47.2505H177.189V59.0617H200.814V47.2505Z" fill="#FF7216"/>
<path d="M177.189 35.4365H165.378V47.2477H177.189V35.4365Z" fill="#FF7216"/>
<path d="M177.189 94.5015H165.378V106.313H177.189V94.5015Z" fill="#FF7216"/>
<path d="M129.938 94.5015H118.127V106.313H129.938V94.5015Z" fill="#FF7216"/>
<path d="M236.251 82.6875H224.439V94.4987H236.251V82.6875Z" fill="#FF7216"/>
<path d="M165.375 23.6255H153.563V35.4367H165.375V23.6255Z" fill="#FF7216"/>
<path d="M118.124 59.062H94.4983V70.8732H118.124V59.062Z" fill="#FF7216"/>
<path d="M129.938 70.876H106.312V82.6872H129.938V70.876Z" fill="#FF7216"/>
<path d="M70.876 59.062H35.4395V70.8732H70.876V59.062Z" fill="#FE500C"/>
<path d="M82.6876 70.876H59.0623V82.6872H82.6876V70.876Z" fill="#FE500C"/>
<path d="M129.938 35.4365H118.127V47.2477H129.938V35.4365Z" fill="#FF7216"/>
<path d="M70.8761 23.6255H59.0649V35.4367H70.8761V23.6255Z" fill="#FF7216"/>
<path d="M59.0619 47.2505H47.2507V59.0617H59.0619V47.2505Z" fill="#FF7216"/>
<path d="M35.4369 47.2505H23.6257V59.0617H35.4369V47.2505Z" fill="#FF7216"/>
<path d="M47.2511 70.876H23.6257V82.6872H47.2511V70.876Z" fill="#FF7216"/>
<path d="M70.8761 118.124H47.2507V129.935H70.8761V118.124Z" fill="#FE500C"/>
<path d="M118.124 94.5015H106.312V106.313H118.124V94.5015Z" fill="#FFC110"/>
<path d="M141.749 106.312H106.312V118.124H141.749V106.312Z" fill="#FFC110"/>
<path d="M153.563 59.062H141.752V70.8732H153.563V59.062Z" fill="#FFC110"/>
<path d="M129.938 129.938H82.6875V141.749H129.938V129.938Z" fill="#FFC110"/>
<path d="M129.938 189H82.6875V200.811H129.938V189Z" fill="#FFC110"/>
<path d="M129.938 177.188H70.876V189H129.938V177.188Z" fill="#FFC110"/>
<path d="M165.375 59.062H141.749V70.8732H165.375V59.062Z" fill="#FF7216"/>
<path d="M177.189 82.6875H141.752V94.4987H177.189V82.6875Z" fill="#FF7216"/>
<path d="M106.313 106.312H70.876V118.124H106.313V106.312Z" fill="#FE500C"/>
<path d="M129.938 200.814H106.312V212.625H129.938V200.814Z" fill="#FF7216"/>
<path d="M94.5013 165.375H70.876V177.186H94.5013V165.375Z" fill="#FF7216"/>
<path d="M129.938 177.188H94.5017V189H129.938V177.188Z" fill="#FF7216"/>
<path d="M70.8761 153.563H47.2507V165.375H70.8761V153.563Z" fill="#FF7216"/>
<path d="M212.625 106.312H200.814V118.124H212.625V106.312Z" fill="#FF7216"/>
<path d="M129.935 212.625H118.124V236.251H129.935V212.625Z" fill="#FFC110"/>
<path d="M129.935 259.876H118.124V271.687H129.935V259.876Z" fill="#FFC110"/>
<path d="M118.127 212.625H94.5017V224.437H118.127V212.625Z" fill="#FFC110"/>
<path d="M106.313 200.814H70.876V212.625H106.313V200.814Z" fill="#FFC110"/>
<path d="M118.124 141.749H82.6875V153.56H118.124V141.749Z" fill="#FF7216"/>
<path d="M106.313 189H82.6875V200.811H106.313V189Z" fill="#FE500C"/>
<path d="M70.8761 177.188H59.0649V189H70.8761V177.188Z" fill="#FE500C"/>
<path d="M94.5019 212.625H82.6907V224.437H94.5019V212.625Z" fill="#FE500C"/>
<path d="M59.0619 165.375H47.2507V177.186H59.0619V165.375Z" fill="#FE500C"/>
<path d="M94.5019 165.375H82.6907V177.186H94.5019V165.375Z" fill="#FE500C"/>
<path d="M47.2506 141.749H35.4395V153.56H47.2506V141.749Z" fill="#FE500C"/>
<path d="M118.124 224.439H94.4983V236.251H118.124V224.439Z" fill="#FF7216"/>
<path d="M118.124 200.814H106.312V212.625H118.124V200.814Z" fill="#FE500C"/>
<path d="M366.188 177.189V165.375V153.563H354.377V141.749V129.938H342.563V118.124H318.938V106.313H295.312V94.5015H212.625V106.313H189V118.124H165.374V129.938H153.563V141.749V153.563H141.749V165.375V177.189H129.938V189V200.814V212.625V224.439V236.251V248.062V259.876H141.749V271.687V283.501H153.563V295.313V307.127H165.374V318.938H189V330.752H212.625V342.563H295.312V330.752H318.938V318.938H330.752V307.127H342.563V295.313H354.377V283.501H366.188V271.687V259.876H378.003V248.062V236.251V224.439V212.625V200.814V189V177.189H366.188Z" fill="#FF8D17"/>
<path d="M378.003 224.439V212.625H283.501V177.189H307.126V165.375H283.501V94.5015H271.687V165.375H248.065V177.189H271.687V212.625H129.938V224.439H271.687V271.687H248.065H236.25V283.501H248.065H271.687V342.563H283.501V283.501H307.126V271.687H283.501V224.439H378.003Z" fill="#C54E38"/>
<path d="M165.377 165.375H153.563V177.186H165.377V165.375Z" fill="#C54E38"/>
<path d="M177.186 141.749H165.375V153.56H177.186V141.749Z" fill="#C54E38"/>
<path d="M236.25 106.312H224.439V118.124H236.25V106.312Z" fill="#C54E38"/>
<path d="M318.941 283.501H307.127V295.313H318.941V283.501Z" fill="#C54E38"/>
<path d="M224.436 295.312H212.625V307.124H224.436V295.312Z" fill="#C54E38"/>
<path d="M236.25 283.501H224.439V295.313H236.25V283.501Z" fill="#C54E38"/>
<path d="M212.625 307.127H189V318.939H212.625V307.127Z" fill="#C54E38"/>
<path d="M330.749 295.312H318.938V307.124H330.749V295.312Z" fill="#C54E38"/>
<path d="M236.25 141.749H224.439V153.56H236.25V141.749Z" fill="#C54E38"/>
<path d="M248.061 153.564H236.25V165.375H248.061V153.564Z" fill="#C54E38"/>
<path d="M318.941 153.564H307.127V165.375H318.941V153.564Z" fill="#C54E38"/>
<path d="M224.436 129.938H212.625V141.75H224.436V129.938Z" fill="#C54E38"/>
<path d="M330.749 141.749H318.938V153.56H330.749V141.749Z" fill="#C54E38"/>
<path d="M212.625 118.125H189V129.936H212.625V118.125Z" fill="#C54E38"/>
<path d="M342.566 129.938H330.752V141.75H342.566V129.938Z" fill="#C54E38"/>
<path d="M224.436 271.687H212.625V283.498H224.436V271.687Z" fill="white"/>
<path d="M236.25 271.687H224.439V283.498H236.25V271.687Z" fill="black"/>
<path d="M212.625 271.687H200.814V283.498H212.625V271.687Z" fill="black"/>
<path d="M248.061 271.687H236.25V283.498H248.061V271.687Z" fill="white"/>
<path d="M259.875 271.687H248.064V283.498H259.875V271.687Z" fill="black"/>
<path d="M271.687 271.687H259.875V283.498H271.687V271.687Z" fill="white"/>
<path d="M283.498 271.687H271.687V283.498H283.498V271.687Z" fill="black"/>
<path d="M342.563 189H271.687V259.876H342.563V189Z" fill="#004EEB"/>
<path d="M307.126 200.814H283.501V248.065H307.126V200.814Z" fill="white"/>
<path d="M330.752 200.814H307.127V248.065H330.752V200.814Z" fill="black"/>
<path d="M275.265 212.625H259.875V224.437H275.265V212.625Z" fill="#004EEB"/>
<path d="M259.875 189H188.999V259.876H259.875V189Z" fill="#F04438"/>
<path d="M224.439 200.814H200.814V248.065H224.439V200.814Z" fill="white"/>
<path d="M248.064 200.814H224.439V248.065H248.064V200.814Z" fill="black"/>
<path d="M153.563 212.625V224.44V236.251V248.062H165.374V236.251V224.44H188.999V212.625H153.563Z" fill="#F04438"/>
</svg>
