<svg width="274" height="275" viewBox="0 0 274 275" fill="none" xmlns="http://www.w3.org/2000/svg">
<g clip-path="url(#clip0_268_1074)">
<path d="M260.95 91.8311V78.7876V65.7375H247.906V52.6873V39.6438H234.856V26.5937H208.763V13.5502H182.669V0.5H91.3311V13.5502H65.2375V26.5937H39.1438V39.6438H26.0937V52.6873V65.7375H13.0502V78.7876V91.8311H0V104.881V117.931V130.975V144.025V157.069V170.119V183.169H13.0502V196.212V209.263H26.0937V222.313V235.356H39.1438V248.406H65.2375V261.45H91.3311V274.5H182.669V261.45H208.763V248.406H221.813V235.356H234.856V222.313H247.906V209.263H260.95V196.212V183.169H274V170.119V157.069V144.025V130.975V117.931V104.881V91.8311H260.95Z" fill="#FF8D17"/>
<path d="M274 144.025V130.975H169.619V91.8311H195.712V78.7876H169.619V0.5H156.569V78.7876H130.475V91.8311H156.569V130.975H0V144.025H156.569V196.212H130.475H117.431V209.263H130.475H156.569V274.5H169.619V209.263H195.712V196.212H169.619V144.025H274Z" fill="#C54E38"/>
<path d="M39.1439 78.7876H26.0938V91.8377H39.1439V78.7876Z" fill="#C54E38"/>
<path d="M52.194 52.6873H39.1438V65.7374H52.194V52.6873Z" fill="#C54E38"/>
<path d="M117.432 13.5502H104.381V26.6003H117.432V13.5502Z" fill="#C54E38"/>
<path d="M208.763 209.263H195.712V222.313H208.763V209.263Z" fill="#C54E38"/>
<path d="M104.381 222.313H91.3311V235.363H104.381V222.313Z" fill="#C54E38"/>
<path d="M117.432 209.263H104.381V222.313H117.432V209.263Z" fill="#C54E38"/>
<path d="M91.3312 235.356H65.2375V248.406H91.3312V235.356Z" fill="#C54E38"/>
<path d="M221.813 222.313H208.762V235.363H221.813V222.313Z" fill="#C54E38"/>
<path d="M117.432 52.6873H104.381V65.7374H117.432V52.6873Z" fill="#C54E38"/>
<path d="M130.482 65.7374H117.431V78.7876H130.482V65.7374Z" fill="#C54E38"/>
<path d="M208.763 65.7374H195.712V78.7876H208.763V65.7374Z" fill="#C54E38"/>
<path d="M104.381 39.6438H91.3311V52.694H104.381V39.6438Z" fill="#C54E38"/>
<path d="M221.813 52.6873H208.762V65.7374H221.813V52.6873Z" fill="#C54E38"/>
<path d="M91.3312 26.5936H65.2375V39.6438H91.3312V26.5936Z" fill="#C54E38"/>
<path d="M234.863 39.6438H221.813V52.694H234.863V39.6438Z" fill="#C54E38"/>
<path d="M104.381 196.212H91.3311V209.263H104.381V196.212Z" fill="white"/>
<path d="M117.432 196.212H104.381V209.263H117.432V196.212Z" fill="black"/>
<path d="M91.3377 196.212H78.2876V209.263H91.3377V196.212Z" fill="black"/>
<path d="M130.482 196.212H117.431V209.263H130.482V196.212Z" fill="white"/>
<path d="M143.525 196.212H130.475V209.263H143.525V196.212Z" fill="black"/>
<path d="M156.575 196.212H143.525V209.263H156.575V196.212Z" fill="white"/>
<path d="M169.619 196.212H156.569V209.263H169.619V196.212Z" fill="black"/>
<path d="M234.856 104.881H156.569V183.169H234.856V104.881Z" fill="#004EEB"/>
<path d="M195.713 117.931H169.619V170.119H195.713V117.931Z" fill="white"/>
<path d="M221.806 117.931H195.712V170.119H221.806V117.931Z" fill="black"/>
<path d="M160.524 130.975H143.525V144.025H160.524V130.975Z" fill="#004EEB"/>
<path d="M143.525 104.881H65.2375V183.169H143.525V104.881Z" fill="#F04438"/>
<path d="M104.381 117.931H78.2876V170.119H104.381V117.931Z" fill="white"/>
<path d="M130.475 117.931H104.381V170.119H130.475V117.931Z" fill="black"/>
<path d="M26.0938 130.975V144.025V157.069V170.119H39.1439V157.069V144.025H65.2376V130.975H26.0938Z" fill="#F04438"/>
</g>
<defs>
<clipPath id="clip0_268_1074">
<rect width="274" height="274" fill="white" transform="translate(0 0.5)"/>
</clipPath>
</defs>
</svg>
