<svg width="293" height="84" viewBox="0 0 293 84" fill="none" xmlns="http://www.w3.org/2000/svg">
<g clip-path="url(#clip0_242_1402)">
<path d="M91.7866 76.0088V7.97729H106.275L113.315 37.8619C114.335 41.9421 115.254 47.0414 115.764 50.1006H116.07C115.356 41.0229 114.948 28.6823 114.948 19.0931V7.97729H127.09V76.0088H112.398L105.052 42.1459C104.338 38.781 103.622 34.2931 103.113 32.1511H102.807C103.317 40.1058 103.724 53.6713 103.724 64.3815V76.0088H91.7866Z" fill="white"/>
<path d="M156.784 23.2772V60.0973C156.784 71.0113 152.396 76.824 143.723 76.824C133.622 76.824 130.968 69.6845 130.968 60.0973V23.3791C130.968 13.2824 134.846 7.06006 144.029 7.06006C153.824 7.06006 156.784 14.9128 156.784 23.2772ZM134.948 23.5829V60.0973C134.948 69.7864 138.52 73.2553 143.927 73.2553C149.334 73.2553 152.702 69.7864 152.702 59.5878V23.6848C152.702 14.6071 149.336 10.6288 143.825 10.6288C137.702 10.6288 134.948 14.5052 134.948 23.5829Z" fill="white"/>
<path d="M164.538 7.87524V61.9336C164.538 68.2578 166.885 73.1533 173.109 73.1533C179.334 73.1533 181.579 69.0731 181.579 62.0355V7.87524H185.559V61.7298C185.559 72.1343 180.967 76.826 173.008 76.826C165.048 76.826 160.662 72.1343 160.662 62.0376V7.87524H164.54H164.538Z" fill="white"/>
<path d="M189.435 76.0087V7.87524H194.434L208.617 56.8343C210.25 62.4431 211.065 66.4215 211.473 68.9712H211.677C211.371 58.9764 211.167 49.3871 211.167 38.3733V7.87524H215.045V76.0087H210.148L194.332 20.4217C193.313 16.9529 192.903 14.4033 192.597 12.7728H192.495C192.903 20.9333 193.311 33.5797 193.311 45.9224V76.0107H189.433L189.435 76.0087Z" fill="white"/>
<path d="M218.923 7.97729H235.045C246.575 7.97729 252.188 12.9747 252.188 23.4811V26.1326C252.188 35.4141 248.718 38.2695 245.555 39.4944C248.616 40.8212 253.309 43.3708 253.309 52.8561V58.2611C253.309 70.0923 248.31 76.0088 235.86 76.0088H218.923V7.97729ZM233.718 34.7008C238.105 34.7008 239.636 33.2721 239.636 28.0709V24.602C239.636 20.216 238.207 18.2778 234.025 18.2778H231.577V34.6987H233.72L233.718 34.7008ZM231.575 65.8102H234.227C238.921 65.8102 240.044 63.6682 240.044 58.5689V52.3466C240.044 47.0435 238.717 44.7995 233.412 44.7995H231.575V65.8102Z" fill="white"/>
<path d="M269.021 59.7917L267.388 76.0088H254.021L263.612 7.97729H283.101L292.998 76.0088H279.427L277.488 59.7917H269.019H269.021ZM276.367 48.2663C275.449 39.5963 274.122 26.3364 273.409 19.8084H272.899C272.695 24.5001 271.062 39.8001 270.144 48.2663H276.369H276.367Z" fill="white"/>
<path d="M80.0303 27.9993V24.0006V19.9998H76.03V15.999V12.0003H72.0277V7.99951H64.0251V4.00078H56.0224V0H28.0102V4.00078H20.0076V7.99951H12.005V12.0003H8.00262V15.999V19.9998H4.00233V24.0006V27.9993H0V32.0001V36.0009V39.9996V44.0004V47.9991V51.9999V56.0007H4.00233V59.9994V64.0002H8.00262V68.001V71.9997H12.005V76.0005H20.0076V79.9992H28.0102V84H56.0224V79.9992H64.0251V76.0005H68.0274V71.9997H72.0277V68.001H76.03V64.0002H80.0303V59.9994V56.0007H84.0326V51.9999V47.9991V44.0004V39.9996V36.0009V32.0001V27.9993H80.0303Z" fill="#FF8D17"/>
<path d="M84.0326 44.0004V39.9996H52.0201V27.9993H60.0227V24.0006H52.0201V0H48.0178V24.0006H40.0152V27.9993H48.0178V39.9996H0V44.0004H48.0178V59.9994H40.0152H36.0149V64.0002H40.0152H48.0178V84H52.0201V64.0002H60.0227V59.9994H52.0201V44.0004H84.0326Z" fill="#C54E38"/>
<path d="M12.005 24.0005H8.00269V28.0013H12.005V24.0005Z" fill="#C54E38"/>
<path d="M16.0072 15.999H12.0049V19.9998H16.0072V15.999Z" fill="#C54E38"/>
<path d="M36.0148 4.00073H32.0125V8.00151H36.0148V4.00073Z" fill="#C54E38"/>
<path d="M64.025 64.0002H60.0227V68.001H64.025V64.0002Z" fill="#C54E38"/>
<path d="M32.0126 68.001H28.0103V72.0018H32.0126V68.001Z" fill="#C54E38"/>
<path d="M36.0148 64.0002H32.0125V68.001H36.0148V64.0002Z" fill="#C54E38"/>
<path d="M28.0102 71.9998H20.0076V76.0005H28.0102V71.9998Z" fill="#C54E38"/>
<path d="M68.0275 68.001H64.0251V72.0018H68.0275V68.001Z" fill="#C54E38"/>
<path d="M36.0148 15.999H32.0125V19.9998H36.0148V15.999Z" fill="#C54E38"/>
<path d="M40.0172 19.9998H36.0149V24.0005H40.0172V19.9998Z" fill="#C54E38"/>
<path d="M64.025 19.9998H60.0227V24.0005H64.025V19.9998Z" fill="#C54E38"/>
<path d="M32.0126 12.0002H28.0103V16.001H32.0126V12.0002Z" fill="#C54E38"/>
<path d="M68.0275 15.999H64.0251V19.9998H68.0275V15.999Z" fill="#C54E38"/>
<path d="M28.0102 7.99951H20.0076V12.0003H28.0102V7.99951Z" fill="#C54E38"/>
<path d="M72.0297 12.0002H68.0273V16.001H72.0297V12.0002Z" fill="#C54E38"/>
<path d="M32.0126 59.9995H28.0103V64.0003H32.0126V59.9995Z" fill="white"/>
<path d="M36.015 59.9995H32.0127V64.0003H36.015V59.9995Z" fill="black"/>
<path d="M28.0123 59.9995H24.01V64.0003H28.0123V59.9995Z" fill="black"/>
<path d="M40.0172 59.9995H36.0149V64.0003H40.0172V59.9995Z" fill="white"/>
<path d="M44.0175 59.9995H40.0151V64.0003H44.0175V59.9995Z" fill="black"/>
<path d="M48.0199 59.9995H44.0176V64.0003H48.0199V59.9995Z" fill="white"/>
<path d="M52.0202 59.9995H48.0178V64.0003H52.0202V59.9995Z" fill="black"/>
<path d="M72.0277 32H48.0178V56.0006H72.0277V32Z" fill="#004EEB"/>
<path d="M60.0229 36.0007H52.0203V51.9998H60.0229V36.0007Z" fill="white"/>
<path d="M68.0253 36.0007H60.0227V51.9998H68.0253V36.0007Z" fill="black"/>
<path d="M49.231 39.9995H44.0176V44.0003H49.231V39.9995Z" fill="#004EEB"/>
<path d="M44.0175 32H20.0076V56.0006H44.0175V32Z" fill="#F04438"/>
<path d="M32.0126 36.0007H24.01V51.9998H32.0126V36.0007Z" fill="white"/>
<path d="M40.0153 36.0007H32.0127V51.9998H40.0153V36.0007Z" fill="black"/>
<path d="M8.00269 39.9995V44.0003V47.999V51.9998H12.005V47.999V44.0003H20.0076V39.9995H8.00269Z" fill="#F04438"/>
</g>
<defs>
<clipPath id="clip0_242_1402">
<rect width="293" height="84" fill="white"/>
</clipPath>
</defs>
</svg>
