<svg width="409" height="143" viewBox="0 0 409 143" fill="none" xmlns="http://www.w3.org/2000/svg">
<path d="M0 140.652V1.87085H29.4042L43.6924 62.8338C45.7614 71.1574 47.6276 81.5597 48.6621 87.8003H49.2828C47.8345 69.2823 47.0069 44.108 47.0069 24.5464V1.87085H71.6483V140.652H41.8304L26.9214 71.5731C25.4731 64.7089 24.0207 55.5539 22.9862 51.1842H22.3655C23.4 67.4114 24.2276 95.0844 24.2276 116.933V140.652H0Z" fill="white"/>
<path d="M131.913 33.0821V108.193C131.913 130.458 123.008 142.315 105.405 142.315C84.906 142.315 79.5184 127.751 79.5184 108.193V33.29C79.5184 12.6932 87.3888 0 106.026 0C125.905 0 131.913 16.0193 131.913 33.0821ZM87.5957 33.7058V108.193C87.5957 127.959 94.8453 135.035 105.819 135.035C116.793 135.035 123.629 127.959 123.629 107.154V33.9136C123.629 15.3956 116.797 7.27998 105.612 7.27998C93.186 7.27998 87.5957 15.1878 87.5957 33.7058Z" fill="white"/>
<path d="M147.65 1.66309V111.94C147.65 124.841 152.412 134.827 165.046 134.827C177.679 134.827 182.235 126.504 182.235 112.147V1.66309H190.312V111.524C190.312 132.748 180.993 142.319 164.839 142.319C148.684 142.319 139.783 132.748 139.783 112.152V1.66309H147.654H147.65Z" fill="white"/>
<path d="M198.178 140.652V1.66309H208.324L237.107 101.537C240.422 112.979 242.077 121.095 242.905 126.296H243.318C242.698 105.907 242.284 86.3453 242.284 63.8776V1.66309H250.154V140.652H240.215L208.117 27.2573C206.048 20.1811 205.216 14.9799 204.596 11.6538H204.389C205.216 28.3009 206.044 54.0989 206.044 79.2774V140.656H198.174L198.178 140.652Z" fill="white"/>
<path d="M258.026 1.87085H290.744C314.144 1.87085 325.536 12.0653 325.536 33.4978V38.9068C325.536 57.8405 318.493 63.6653 312.075 66.1641C318.286 68.8707 327.812 74.0718 327.812 93.4213V104.447C327.812 128.582 317.666 140.652 292.399 140.652H258.026V1.87085ZM288.051 56.3854C296.955 56.3854 300.063 53.4709 300.063 42.8607V35.7844C300.063 26.8373 297.162 22.8834 288.675 22.8834H283.706V56.3812H288.055L288.051 56.3854ZM283.702 119.847H289.085C298.611 119.847 300.89 115.477 300.89 105.075V92.3819C300.89 81.5638 298.197 76.9863 287.43 76.9863H283.702V119.847V119.847Z" fill="white"/>
<path d="M359.698 107.57L356.383 140.652H329.255L348.72 1.87085H388.274L408.36 140.652H380.818L376.882 107.57H359.693H359.698ZM374.607 84.0584C372.745 66.372 370.051 39.3226 368.602 26.0058H367.568C367.154 35.5766 363.84 66.7877 361.978 84.0584H374.611H374.607Z" fill="white"/>
</svg>
