<svg width="564" height="182" viewBox="0 0 564 182" fill="none" xmlns="http://www.w3.org/2000/svg">
<g clip-path="url(#clip0_242_1024)">
<path d="M242.859 138.671H234.179V147.338H225.501V156.005H216.821V164.669H199.464V173.336H216.821V182H260.216V138.671H242.859Z" fill="#F04438"/>
<path d="M286.254 138.671H268.896V182H277.574V173.336H294.931V164.669H303.611V156.005H294.931V147.338H286.254V138.671Z" fill="#F04438"/>
<path d="M268.896 130.008H286.254V138.672H294.931V147.338H303.611V156.005H312.288V147.338H320.969V138.672H329.646V130.008V121.341H338.326V112.677V104.01V95.3459H268.896V130.008Z" fill="#F04438"/>
<path d="M216.821 26.0194H225.501V34.6863H234.182V43.3533H242.862V52.0203H260.219V0.0246582H216.824V8.68854H199.467V17.3555H216.824V26.0225L216.821 26.0194Z" fill="#F04438"/>
<path d="M216.821 156.005V147.338H225.501V138.672H234.179V130.008H242.859H260.216V95.3459H156.069V104.01V112.677V121.341H164.749V130.008V138.672H173.426V156.005H182.106V164.669H199.464V156.005H216.821Z" fill="#F04438"/>
<path d="M260.216 60.681H242.859V52.014H234.179V43.3471H225.498V34.6801H216.818V26.0132H199.461V17.3462H182.103V26.0132H173.423V43.344H164.743V60.6749H156.063V86.6727H260.21V60.6749L260.216 60.681Z" fill="#F04438"/>
<path d="M294.931 43.3502V34.6863H303.611V26.0194H312.288V17.3555H294.931V8.68854H277.574V0.0246582H268.896V52.0172H286.254V43.3502H294.931Z" fill="#F04438"/>
<path d="M329.646 60.681V52.0171V43.3501H320.969V34.6862V26.0193H312.288V34.6862H303.611V43.3501H294.931V52.0171H286.254V60.681H268.896V86.6788H338.326V78.0149V69.3479V60.681H329.646Z" fill="#F04438"/>
<path d="M355.683 138.671H347.006V147.338H338.326V156.005H329.646V164.669H312.288V173.336H329.646V182H373.041V138.671H355.683Z" fill="#004EEB"/>
<path d="M399.079 138.671H381.721V182H390.398V173.336H407.756V164.669H416.436V156.005H407.756V147.338H399.079V138.671Z" fill="#004EEB"/>
<path d="M381.721 130.008H399.079V138.672H407.756V147.338H416.436V156.005H425.116V147.338H433.793V138.672H442.474V130.008V121.341H451.151V112.677V104.01V95.3459H381.721V130.008Z" fill="#004EEB"/>
<path d="M329.646 26.0194H338.326V34.6863H347.006V43.3533H355.687V52.0203H373.044V0.0246582H329.649V8.68854H312.292V17.3555H329.649V26.0225L329.646 26.0194Z" fill="#004EEB"/>
<path d="M329.646 156.005V147.338H338.326V138.672H347.006V130.008H355.683H373.041V95.3459H268.896V104.01V112.677V121.341H277.574V130.008V138.672H286.254V156.005H294.931V164.669H312.288V156.005H329.646Z" fill="#004EEB"/>
<path d="M373.041 60.681H355.684V52.014H347.003V43.3471H338.323V34.6801H329.643V26.0132H312.285V17.3462H294.928V26.0132H286.248V43.344H277.568V60.6749H268.887V86.6727H373.035V60.6749L373.041 60.681Z" fill="#004EEB"/>
<path d="M407.756 43.3502V34.6863H416.436V26.0194H425.116V17.3555H407.756V8.68854H390.398V0.0246582H381.721V52.0172H399.079V43.3502H407.756Z" fill="#004EEB"/>
<path d="M442.474 60.681V52.0171V43.3501H433.793V34.6862V26.0193H425.116V34.6862H416.436V43.3501H407.756V52.0171H399.079V60.681H381.721V86.6788H451.151V78.0149V69.3479V60.681H442.474Z" fill="#004EEB"/>
<path d="M156.069 69.3479H0V78.0149H156.069V69.3479Z" fill="#F04438"/>
<path d="M156.069 86.6787H0V95.3457H156.069V86.6787Z" fill="#F04438"/>
<path d="M156.069 52.0171H0V60.6841H156.069V52.0171Z" fill="#F04438"/>
<path d="M173.392 17.3555H0V26.0224H173.392V17.3555Z" fill="#F04438"/>
<path d="M164.792 34.6863H0V43.3532H164.792V34.6863Z" fill="#F04438"/>
<path d="M199.464 0.0246582H0V8.69162H199.464V0.0246582Z" fill="#F04438"/>
<path d="M199.464 173.336H0V182.003H199.464V173.336Z" fill="#F04438"/>
<path d="M173.405 156.005H0V164.672H173.405V156.005Z" fill="#F04438"/>
<path d="M156.069 121.341H0V130.008H156.069V121.341Z" fill="#F04438"/>
<path d="M164.74 138.671H0V147.338H164.74V138.671Z" fill="#F04438"/>
<path d="M156.069 104.01H0V112.677H156.069V104.01Z" fill="#F04438"/>
<path d="M555.32 60.6656V51.9987V43.3348H546.64V34.6678V26.0009H537.959V17.3339H520.602V8.66696H503.241V0H442.48V8.66696H425.119V17.3339H407.762V26.0009H399.082V34.6678V43.3348H390.401V51.9987V60.6656H381.721V69.3326V77.9996V86.6665V95.3335V104V112.667V121.334H390.401V130.001V138.668H399.082V147.335V155.999H407.762V164.666H425.119V173.333H442.48V182H503.241V173.333H520.602V164.666H529.279V155.999H537.959V147.335H546.64V138.668H555.32V130.001V121.334H564V112.667V104V95.3335V86.6665V77.9996V69.3326V60.6656H555.32Z" fill="#FF8D17"/>
<path d="M564 95.3335V86.6665H494.561V60.6656H511.922V51.9987H494.561V0H485.881V51.9987H468.52V60.6656H485.881V86.6665H381.721V95.3335H485.881V130.001H468.52H459.84V138.668H468.52H485.881V182H494.561V138.668H511.922V130.001H494.561V95.3335H564Z" fill="#C54E38"/>
<path d="M407.762 51.9988H399.082V60.6657H407.762V51.9988Z" fill="#C54E38"/>
<path d="M416.442 34.6677H407.762V43.3347H416.442V34.6677Z" fill="#C54E38"/>
<path d="M459.84 8.66699H451.16V17.334H459.84V8.66699Z" fill="#C54E38"/>
<path d="M520.602 138.668H511.922V147.335H520.602V138.668Z" fill="#C54E38"/>
<path d="M451.16 147.335H442.48V156.002H451.16V147.335Z" fill="#C54E38"/>
<path d="M459.84 138.668H451.16V147.335H459.84V138.668Z" fill="#C54E38"/>
<path d="M442.48 155.999H425.119V164.666H442.48V155.999Z" fill="#C54E38"/>
<path d="M529.282 147.335H520.602V156.002H529.282V147.335Z" fill="#C54E38"/>
<path d="M459.84 34.6677H451.16V43.3347H459.84V34.6677Z" fill="#C54E38"/>
<path d="M468.52 43.3347H459.84V52.0017H468.52V43.3347Z" fill="#C54E38"/>
<path d="M520.602 43.3347H511.922V52.0017H520.602V43.3347Z" fill="#C54E38"/>
<path d="M451.16 26.001H442.48V34.6679H451.16V26.001Z" fill="#C54E38"/>
<path d="M529.282 34.6677H520.602V43.3347H529.282V34.6677Z" fill="#C54E38"/>
<path d="M442.48 17.334H425.119V26.0009H442.48V17.334Z" fill="#C54E38"/>
<path d="M537.959 26.001H529.279V34.6679H537.959V26.001Z" fill="#C54E38"/>
<path d="M451.16 130.001H442.48V138.668H451.16V130.001Z" fill="white"/>
<path d="M459.84 130.001H451.16V138.668H459.84V130.001Z" fill="black"/>
<path d="M442.48 130.001H433.8V138.668H442.48V130.001Z" fill="black"/>
<path d="M468.52 130.001H459.84V138.668H468.52V130.001Z" fill="white"/>
<path d="M477.201 130.001H468.521V138.668H477.201V130.001Z" fill="black"/>
<path d="M485.881 130.001H477.201V138.668H485.881V130.001Z" fill="white"/>
<path d="M494.561 130.001H485.881V138.668H494.561V130.001Z" fill="black"/>
<path d="M537.959 69.3325H485.881V121.331H537.959V69.3325Z" fill="#004EEB"/>
<path d="M511.922 77.9995H494.561V112.667H511.922V77.9995Z" fill="white"/>
<path d="M529.282 77.9995H511.922V112.667H529.282V77.9995Z" fill="black"/>
<path d="M488.511 86.6665H477.201V95.3335H488.511V86.6665Z" fill="#004EEB"/>
<path d="M477.198 69.3325H425.119V121.331H477.198V69.3325Z" fill="#F04438"/>
<path d="M451.16 77.9995H433.8V112.667H451.16V77.9995Z" fill="white"/>
<path d="M468.52 77.9995H451.16V112.667H468.52V77.9995Z" fill="black"/>
<path d="M399.082 86.6665V95.3335V104V112.667H407.762V104V95.3335H425.119V86.6665H399.082Z" fill="#F04438"/>
</g>
<defs>
<clipPath id="clip0_242_1024">
<rect width="564" height="182" fill="white"/>
</clipPath>
</defs>
</svg>
